<svg width="31" height="31" viewBox="0 0 31 31" fill="none" xmlns="http://www.w3.org/2000/svg">
<path d="M28.4195 0H2.58075C1.89629 0 1.23987 0.2719 0.755884 0.755884C0.2719 1.23987 0 1.89629 0 2.58075V28.4193C0 28.7582 0.066753 29.0937 0.196448 29.4069C0.326143 29.72 0.51624 30.0045 0.755884 30.2441C0.995529 30.4838 1.28003 30.6739 1.59314 30.8036C1.90625 30.9332 2.24184 31 2.58075 31H28.4195C28.7584 31 29.094 30.9332 29.4071 30.8035C29.7201 30.6738 30.0046 30.4837 30.2442 30.2441C30.4839 30.0044 30.6739 29.7199 30.8036 29.4068C30.9333 29.0937 31 28.7581 31 28.4193V2.58075C31 2.24186 30.9333 1.90628 30.8036 1.59318C30.6739 1.28008 30.4839 0.995583 30.2442 0.755938C30.0046 0.516293 29.7201 0.326191 29.4071 0.196487C29.094 0.0667832 28.7584 1.6962e-05 28.4195 0ZM14.0471 5.16667H16.9534V18.0833H14.0471V5.16667ZM15.5 25.8333C15.1168 25.8333 14.7422 25.7197 14.4236 25.5068C14.105 25.2939 13.8566 24.9913 13.71 24.6373C13.5633 24.2832 13.525 23.8937 13.5997 23.5178C13.6745 23.142 13.859 22.7968 14.13 22.5258C14.4009 22.2549 14.7462 22.0703 15.122 21.9956C15.4978 21.9208 15.8874 21.9592 16.2414 22.1058C16.5955 22.2525 16.8981 22.5008 17.111 22.8194C17.3239 23.138 17.4375 23.5126 17.4375 23.8958C17.4375 24.4097 17.2334 24.9025 16.87 25.2659C16.5067 25.6292 16.0139 25.8333 15.5 25.8333Z" fill="#154273"/>
<rect x="14" y="5" width="3" height="13" fill="#BCDFF1"/>
<circle cx="15.5" cy="23.5" r="2.5" fill="#BCDFF1"/>
</svg>
